<?xml version="1.0" standalone="no"?>
<!DOCTYPE svg PUBLIC "-//W3C//DTD SVG 20010904//EN"
 "http://www.w3.org/TR/2001/REC-SVG-20010904/DTD/svg10.dtd">
<svg version="1.0" xmlns="http://www.w3.org/2000/svg"
 width="472.000000pt" height="472.000000pt" viewBox="0 0 472.000000 472.000000"
 preserveAspectRatio="xMidYMid meet">
<metadata>
Created by potrace 1.11, written by Peter Selinger 2001-2013
</metadata>
<g transform="translate(0.000000,472.000000) scale(0.100000,-0.100000)"
fill="#000000" stroke="none">
<path d="M1366 3126 c-3 -13 -6 -248 -6 -522 -1 -466 -2 -502 -20 -541 -22
-51 -49 -66 -103 -60 -39 5 -78 36 -87 70 -1 7 -4 244 -6 527 -4 466 -6 516
-21 528 -12 9 -72 12 -213 12 -141 0 -201 -3 -213 -12 -15 -12 -17 -58 -17
-517 -1 -541 -2 -554 -53 -593 -34 -26 -105 -18 -132 16 -12 15 -23 33 -25 39
-1 7 -5 245 -9 530 -5 445 -8 519 -21 527 -8 5 -104 10 -213 10 -163 0 -201
-3 -213 -15 -13 -13 -15 -86 -11 -547 3 -472 5 -540 21 -592 36 -121 80 -195
165 -274 43 -39 163 -108 207 -116 11 -3 39 -9 64 -15 40 -9 202 -8 240 1 69
18 158 60 186 87 18 17 21 17 62 -11 91 -63 183 -87 312 -84 108 4 168 17 249
56 163 79 269 231 301 430 5 36 10 173 10 305 l0 241 688 -1 c668 0 688 -1
721 -20 50 -29 73 -65 73 -116 1 -57 -22 -101 -68 -130 -30 -18 -52 -22 -118
-23 l-81 -1 -1 -367 -1 -367 271 2 271 2 1 300 c0 165 3 314 8 332 6 28 64 92
84 94 4 0 21 2 37 4 64 9 122 -20 160 -79 18 -26 19 -53 20 -340 l0 -311 268
-3 267 -2 0 368 0 368 -79 1 c-107 1 -151 26 -180 99 -17 43 -2 118 28 142 54
43 61 45 190 47 106 3 137 7 180 25 55 24 108 77 137 139 23 46 23 161 0 214
-30 69 -101 133 -171 155 -11 3 -725 7 -1586 9 l-1567 3 -6 -24z"/>
</g>
</svg>
