<?xml version="1.0" standalone="no"?>
<!DOCTYPE svg PUBLIC "-//W3C//DTD SVG 20010904//EN"
 "http://www.w3.org/TR/2001/REC-SVG-20010904/DTD/svg10.dtd">
<svg version="1.0" xmlns="http://www.w3.org/2000/svg"
 width="128.000000pt" height="128.000000pt" viewBox="0 0 128.000000 128.000000"
 preserveAspectRatio="xMidYMid meet">
<metadata>
Created by potrace 1.11, written by Peter Selinger 2001-2013
</metadata>
<g transform="translate(0.000000,128.000000) scale(0.100000,-0.100000)"
fill="#000000" stroke="none">
<path d="M0 640 l0 -640 640 0 640 0 0 640 0 640 -640 0 -640 0 0 -640z m678
368 c7 -7 12 -36 12 -65 l0 -53 85 0 c51 0 99 -6 120 -14 60 -25 65 -48 65
-300 l0 -224 -31 -26 -31 -26 -255 0 -255 0 -29 29 -29 29 0 222 c0 247 4 265
64 294 23 11 61 16 120 16 l86 0 0 53 c0 57 12 77 45 77 12 0 26 -5 33 -12z
m-393 -438 l0 -135 -27 -3 c-17 -2 -34 4 -47 17 -18 18 -21 33 -21 119 0 116
13 145 63 140 l32 -3 0 -135z m797 123 c15 -14 18 -32 18 -120 0 -91 -2 -105
-21 -124 -13 -13 -30 -19 -47 -17 l-27 3 -3 124 c-1 69 0 131 2 138 7 18 56
16 78 -4z"/>
<path d="M472 698 c-7 -7 -12 -24 -12 -38 0 -33 17 -50 50 -50 14 0 31 5 38
12 7 7 12 24 12 38 0 14 -5 31 -12 38 -15 15 -61 15 -76 0z"/>
<path d="M742 698 c-16 -16 -15 -63 2 -77 42 -35 111 20 82 64 -15 23 -66 31
-84 13z"/>
<path d="M470 460 c0 -17 7 -20 40 -20 33 0 40 3 40 20 0 17 -7 20 -40 20 -33
0 -40 -3 -40 -20z"/>
<path d="M600 460 c0 -17 7 -20 45 -20 38 0 45 3 45 20 0 17 -7 20 -45 20 -38
0 -45 -3 -45 -20z"/>
<path d="M740 460 c0 -17 7 -20 40 -20 33 0 40 3 40 20 0 17 -7 20 -40 20 -33
0 -40 -3 -40 -20z"/>
</g>
</svg>
